<?xml version="1.0" encoding="UTF-8"?>
<svg version="1.1" xmlns="http://www.w3.org/2000/svg" width="665" height="785">
<path d="M0 0 C219.45 0 438.9 0 665 0 C665 259.05 665 518.1 665 785 C445.55 785 226.1 785 0 785 C0 525.95 0 266.9 0 0 Z " fill="#FDFEFE" transform="translate(0,0)"/>
<path d="M0 0 C129.36 0 258.72 0 392 0 C382.99092971 18.01814059 382.99092971 18.01814059 379.921875 23.97265625 C379.58835526 24.62023392 379.25483551 25.26781158 378.91120911 25.93501282 C377.85853678 27.9780593 376.80437843 30.02033356 375.75 32.0625 C375.00381414 33.50927181 374.25763918 34.95604924 373.51147461 36.40283203 C366.47900764 50.03203798 359.41258661 63.64361938 352.25390625 77.20703125 C351.81038818 78.04766113 351.36687012 78.88829102 350.90991211 79.75439453 C350.09830237 81.29125614 349.28547515 82.82747597 348.47094727 84.36279297 C345.21102662 90.52997981 342.12269544 96.75460913 339 103 C269.7 103 200.4 103 129 103 C129 127.42 129 151.84 129 177 C128.34 177 127.68 177 127 177 C126.60748047 177.81597656 126.60748047 177.81597656 126.20703125 178.6484375 C124.80653992 181.37690281 123.25569081 183.98932676 121.6875 186.625 C105.72785069 214.05048432 101.59409922 244.8432142 109.39697266 275.76074219 C113.25272155 290.07852716 120.02564507 301.46887083 128 314 C128 338.75 128 363.5 128 389 C197.63 389 267.26 389 339 389 C354 417.5 354 417.5 354 421 C354.66 421 355.32 421 356 421 C357.46167733 423.89415706 358.91873964 426.79061398 360.375 429.6875 C360.7875 430.50412109 361.2 431.32074219 361.625 432.16210938 C364.78497971 438.4565851 364.78497971 438.4565851 366.07421875 441.71484375 C367.67900881 445.67603439 370.03999558 449.2173577 372.24609375 452.8671875 C373.73313838 455.52333404 374.91982022 458.15857112 376.08227539 460.96484375 C378.11240624 465.4668844 380.60881132 469.745076 383 474.0625 C392 490.37771739 392 490.37771739 392 493 C262.64 493 133.28 493 0 493 C0 330.31 0 167.62 0 0 Z " fill="#1C1C1C" transform="translate(118,122)"/>
<path d="M0 0 C1.89269371 -0.0237394 1.89269371 -0.0237394 3.82362366 -0.04795837 C5.23510591 -0.06036952 6.64658974 -0.07260097 8.05807495 -0.08467102 C9.53453388 -0.1007486 11.01098955 -0.11712834 12.48744202 -0.13378906 C25.98365048 -0.27860805 39.48079133 -0.35356425 52.97761726 -0.41270733 C62.95663305 -0.4572761 72.93427404 -0.53439123 82.91267502 -0.65429181 C89.92588468 -0.73572422 96.9387178 -0.7788494 103.95238006 -0.79400951 C108.142395 -0.80417502 112.33068016 -0.83145533 116.52017593 -0.90032005 C120.46557689 -0.96445481 124.40837933 -0.98109827 128.35422707 -0.96182442 C129.7994848 -0.96297596 131.24484849 -0.98116874 132.68963814 -1.01796722 C143.56677261 -1.28062612 143.56677261 -1.28062612 147.58301926 2.34236717 C151.11002825 7.25133494 153.57955072 12.66150309 155.50680542 18.37504578 C155.74463745 19.03440125 155.98246948 19.69375671 156.22750854 20.37309265 C162.86442143 39.03366489 163.39383724 59.83446831 159.00680542 79.12504578 C158.81070679 79.99282654 158.61460815 80.8606073 158.41256714 81.75468445 C156.88732383 87.8023971 154.71367551 95.66817569 150.19430542 100.18754578 C148.13136264 100.28436399 146.065045 100.309415 143.99983215 100.30780029 C143.34560935 100.30865472 142.69138655 100.30950914 142.01733881 100.31038946 C139.80929199 100.31204606 137.60131994 100.30651999 135.39328003 100.30107117 C133.81679791 100.30078931 132.24031566 100.300947 130.66383362 100.30151367 C126.37062993 100.3018017 122.07745393 100.29590418 117.7842567 100.28893971 C113.30257859 100.28270699 108.82089991 100.28210244 104.33921814 100.28091431 C95.84649633 100.27780075 87.35378733 100.26958703 78.86107117 100.25956482 C69.19497003 100.24840444 59.5288683 100.24289342 49.86276233 100.23786938 C29.97326954 100.22740444 10.08378828 100.20980453 -9.80569458 100.18754578 C-10.20401489 99.37930359 -10.60233521 98.5710614 -11.01272583 97.73832703 C-11.54253052 96.66969421 -12.07233521 95.6010614 -12.61819458 94.50004578 C-13.40130005 92.9164325 -13.40130005 92.9164325 -14.20022583 91.30082703 C-15.22789397 89.30800097 -16.31258424 87.34295789 -17.46641541 85.42042542 C-19.57527023 81.90449007 -19.92074373 78.3252023 -20.49319458 74.31254578 C-20.61766968 73.44267029 -20.74214478 72.5727948 -20.87039185 71.67655945 C-24.17263718 46.24498175 -21.20104779 22.91724033 -6.80569458 1.18754578 C-5.02543992 -0.59270888 -2.4101511 0.02635388 0 0 Z " fill="#1F1F1E" transform="translate(261.8056945800781,313.8124542236328)"/>
<path d="M0 0 C130.35 0 260.7 0 395 0 C395 0.66 395 1.32 395 2 C265.64 2 136.28 2 3 2 C3 164.69 3 327.38 3 495 C132.69 494.67 262.38 494.34 396 494 C396 494.66 396 495.32 396 496 C265.98 496 135.96 496 2 496 C1.93941406 460.78152344 1.87882812 425.56304688 1.81640625 389.27734375 C1.77593234 367.02408739 1.73521623 344.77083187 1.69335938 322.51757812 C1.67278787 311.57581755 1.65226231 300.63405689 1.63184831 289.69229602 C1.6290792 288.20813639 1.62630864 286.72397677 1.62353661 285.23981715 C1.57934768 261.57438274 1.53834913 237.90894412 1.49901587 214.24350117 C1.45857777 189.92347771 1.41491223 165.60346213 1.36717889 141.28345184 C1.36044022 137.84934864 1.35373849 134.41524536 1.34705925 130.98114204 C1.34574352 130.30525342 1.34442779 129.6293648 1.3430722 128.9329947 C1.32197761 118.04789451 1.3042908 107.16279131 1.28787469 96.27768317 C1.2713031 85.33760805 1.2510702 74.39754377 1.22733159 63.45748173 C1.21457434 57.52865998 1.20343702 51.59984655 1.19658089 45.67101479 C1.19027206 40.24581049 1.17943785 34.82063497 1.1649667 29.39544649 C1.16053052 27.43033135 1.15777145 25.46521158 1.15683801 23.50009166 C1.15532831 20.83277084 1.14775856 18.16553322 1.1386652 15.49822903 C1.13968787 14.7320932 1.14071054 13.96595738 1.14176419 13.17660531 C1.13808348 12.45993325 1.13440277 11.74326119 1.13061053 11.00487179 C1.12951866 10.39576745 1.1284268 9.78666311 1.12730185 9.15910107 C0.94624932 6.08836243 0.4350222 3.0451554 0 0 Z " fill="#C5C5C5" transform="translate(115,120)"/>
<path d="M0 0 C0.99 0.33 1.98 0.66 3 1 C2.13468692 6.4965662 -2.09784557 9.37368752 -6 13 C-6.72703125 13.68449219 -7.4540625 14.36898438 -8.203125 15.07421875 C-13.59850406 20 -13.59850406 20 -17 20 C-17.2475 20.61875 -17.495 21.2375 -17.75 21.875 C-19.23740369 24.40358627 -20.43678009 24.71839004 -23 26 C-23.2784375 26.58394531 -23.556875 27.16789062 -23.84375 27.76953125 C-25.31275989 30.60333073 -27.22648461 32.4545831 -29.5 34.6875 C-30.2940625 35.47511719 -31.088125 36.26273437 -31.90625 37.07421875 C-34 39 -34 39 -36 40 C-36.67939174 41.99571323 -37.34561559 43.99594773 -38 46 C-40 48 -40 48 -41.9453125 48.1953125 C-43.96354167 48.13020833 -45.98177083 48.06510417 -48 48 C-48.2475 47.030625 -48.495 46.06125 -48.75 45.0625 C-51.41296737 38.91055222 -57.6774401 35.68539246 -63 32 C-65.07403605 30.55686654 -67.14319853 29.10814858 -69.20214844 27.64355469 C-70.55057022 26.68480558 -71.90789153 25.7384327 -73.27441406 24.80566406 C-75.140625 23.48046875 -75.140625 23.48046875 -78 21 C-78 19.68 -78 18.36 -78 17 C-73.5510217 17.5007508 -70.87361793 18.42846588 -67.3125 21.125 C-62.77151415 24.46193657 -58.11734754 27.52045917 -53.34765625 30.51953125 C-51.54865343 31.65401056 -49.76963904 32.82024064 -48 34 C-44.82959578 34.84933119 -42.18224646 34.7992619 -39 34 C-36.24165216 32.07226576 -33.97399684 29.91312053 -31.58203125 27.546875 C-29.10339255 25.10198478 -26.54490472 22.96603972 -23.8125 20.8125 C-18.30405072 16.36791432 -13.16537682 11.57344898 -8.03833008 6.6965332 C-7.42755615 6.11734131 -6.81678223 5.53814941 -6.1875 4.94140625 C-5.64480469 4.42263916 -5.10210937 3.90387207 -4.54296875 3.36938477 C-3 2 -3 2 0 0 Z " fill="#B49240" transform="translate(374,327)"/>
<path d="M0 0 C129.36 0 258.72 0 392 0 C392 0.33 392 0.66 392 1 C391.410979 1.02505615 390.82195801 1.0501123 390.21508789 1.07592773 C387.49741329 1.19332361 384.77996658 1.31538715 382.0625 1.4375 C381.13630859 1.47681641 380.21011719 1.51613281 379.25585938 1.55664062 C373.46486581 1.82079121 367.75460497 2.29764309 362 3 C362 2.34 362 1.68 362 1 C357.07022981 1.11825365 352.14066104 1.24250242 347.21118164 1.37231445 C345.53414013 1.41563167 343.85705542 1.45730907 342.17993164 1.49731445 C339.76956159 1.55509485 337.3594083 1.6187668 334.94921875 1.68359375 C334.19912033 1.70030624 333.44902191 1.71701874 332.67619324 1.73423767 C329.54322008 1.82344233 326.9929064 2.00236453 324 3 C324 2.34 324 1.68 324 1 C316.31102069 1.51405694 308.65144206 2.0765501 301 3 C301 2.34 301 1.68 301 1 C300.23816406 1.15597656 299.47632813 1.31195313 298.69140625 1.47265625 C292.04068737 2.72641224 286.67753599 2.95393371 280 2 C278.515 2.495 278.515 2.495 277 3 C275.39170258 2.76615773 273.78393225 2.52779693 272.17984009 2.2666626 C267.55680893 1.70112134 262.88115772 1.85841521 258.23046875 1.8671875 C257.11311844 1.86623077 255.99576813 1.86527405 254.84455872 1.86428833 C252.49378401 1.86361019 250.1430074 1.86543887 247.79223633 1.86962891 C244.18241219 1.87500758 240.57271105 1.86965859 236.96289062 1.86328125 C234.67708306 1.8639416 232.39127557 1.86522187 230.10546875 1.8671875 C229.02218796 1.86516327 227.93890717 1.86313904 226.82279968 1.86105347 C225.32532951 1.86578171 225.32532951 1.86578171 223.79760742 1.87060547 C222.91715256 1.87140106 222.03669769 1.87219666 221.12956238 1.87301636 C218.94600308 1.86317286 218.94600308 1.86317286 217 3 C216.29875 2.855625 215.5975 2.71125 214.875 2.5625 C210.16485441 1.64094978 205.5995736 1.4668088 201 3 C199.06005859 2.88330078 199.06005859 2.88330078 196.7734375 2.5703125 C190.39888559 1.85019421 184.05745655 1.84933083 177.64794922 1.86962891 C175.60767376 1.875046 173.56761305 1.86962203 171.52734375 1.86328125 C170.23183594 1.86457031 168.93632812 1.86585937 167.6015625 1.8671875 C166.42932129 1.86831543 165.25708008 1.86944336 164.04931641 1.87060547 C161.48114012 1.97958333 159.45113756 2.32096409 157 3 C154 3 154 3 151 2 C148.9490346 1.96920513 148.9490346 1.96920513 146.7265625 2.15625 C145.9015625 2.20910156 145.0765625 2.26195313 144.2265625 2.31640625 C142.4999612 2.43825349 140.77339817 2.56064437 139.046875 2.68359375 C137.80550781 2.76287109 137.80550781 2.76287109 136.5390625 2.84375 C135.78834473 2.89724609 135.03762695 2.95074219 134.26416016 3.00585938 C132 3 132 3 129.71885681 2.5057373 C126.82160983 1.96681746 124.18005153 1.88688826 121.23413086 1.90234375 C120.08470001 1.90560669 118.93526917 1.90886963 117.75100708 1.91223145 C115.87685623 1.92473938 115.87685623 1.92473938 113.96484375 1.9375 C111.94135718 1.94386506 109.91787053 1.95021804 107.89438248 1.95609283 C105.73179462 1.96302809 103.56922443 1.97211792 101.40664673 1.98168945 C93.84664724 2.01410386 86.28662554 2.02623168 78.7265625 2.03125 C77.56877131 2.03207329 77.56877131 2.03207329 76.38759041 2.03291321 C59.52601754 2.03937819 42.67092734 1.80796131 25.8125 1.5 C24.49571259 1.47599121 23.17892517 1.45198242 21.82223511 1.42724609 C14.54799062 1.29278242 7.2739169 1.15114885 0 1 C0 0.67 0 0.34 0 0 Z " fill="#494849" transform="translate(118,122)"/>
<path d="M0 0 C1.18848541 0.16233124 2.37697083 0.32466248 3.60147095 0.49191284 C10.18274501 1.21737448 16.76369232 1.13995464 23.37646484 1.12939453 C24.81133061 1.13075181 26.24619603 1.13253357 27.68106079 1.13470459 C31.55251541 1.13923762 35.42394319 1.13750711 39.29539824 1.1343255 C43.35388477 1.13178342 47.41236909 1.13414431 51.47085571 1.13571167 C58.27793793 1.13752673 65.08500928 1.13514318 71.89208984 1.13037109 C79.76351869 1.12491662 87.63492169 1.12670237 95.50634992 1.1321975 C102.27255423 1.1367319 109.03875074 1.13737797 115.80495608 1.13475883 C119.84307252 1.13319955 123.88117679 1.13299303 127.91929245 1.13629532 C131.70977622 1.13917921 135.50022649 1.13718878 139.29070663 1.13140106 C140.68270309 1.13007682 142.07470235 1.13046191 143.46669769 1.13266373 C145.36348878 1.13538799 147.26028601 1.13136924 149.15707397 1.12698364 C150.21927343 1.12660662 151.28147289 1.12622959 152.37586021 1.12584114 C155.11105155 1.11321765 155.11105155 1.11321765 158 0 C158.99 0 159.98 0 161 0 C161.33 0.99 161.66 1.98 162 3 C161 4 161 4 158.37817287 4.12304783 C157.19919965 4.12212604 156.02022642 4.12120424 154.80552673 4.12025452 C154.15130393 4.12110894 153.49708113 4.12196337 152.82303339 4.12284368 C150.61498657 4.12450028 148.40701452 4.11897421 146.19897461 4.11352539 C144.62249249 4.11324353 143.04601024 4.11340123 141.4695282 4.1139679 C137.17632451 4.11425592 132.88314851 4.1083584 128.58995128 4.10139394 C124.10827317 4.09516121 119.62659449 4.09455667 115.14491272 4.09336853 C106.65219091 4.09025497 98.15948191 4.08204126 89.66676575 4.07201904 C80.00066461 4.06085866 70.33456288 4.05534764 60.66845691 4.05032361 C40.77896412 4.03985866 20.88948286 4.02225875 1 4 C0.67 2.68 0.34 1.36 0 0 Z " fill="#141314" transform="translate(251,410)"/>
<path d="M0 0 C0.33 0 0.66 0 1 0 C1.13357726 20.74902881 1.2640003 41.49807549 1.39115143 62.2471447 C1.45032188 71.89214858 1.51035729 81.53714531 1.57275391 91.18212891 C1.83287794 131.47641427 2.04962991 171.77017513 2.06511116 212.06539774 C2.06637896 214.6322418 2.06862881 217.19908324 2.07113647 219.76592636 C2.09403736 245.93005729 1.79662973 272.07302843 1.04268742 298.22777939 C0.93518109 302.06642915 1.03867055 305.66768611 1.61743164 309.46826172 C1.80680298 311.21647217 1.80680298 311.21647217 2 313 C1.34 313.66 0.68 314.32 0 315 C-1.01472064 311.95583808 -1.11892387 309.94191274 -1.10743046 306.75823689 C-1.10593811 305.66544432 -1.10444576 304.57265175 -1.10290819 303.44674426 C-1.0961044 302.24150692 -1.08930061 301.03626958 -1.08229065 299.79450989 C-1.07906152 298.51787828 -1.07583239 297.24124667 -1.07250541 295.92592925 C-1.06338872 292.37539021 -1.04795679 288.82490202 -1.03152263 285.27439034 C-1.01490893 281.44824313 -1.00411076 277.62207908 -0.99261475 273.7959137 C-0.97189018 267.16448834 -0.94746166 260.53308486 -0.92053413 253.9016819 C-0.88160654 244.31372662 -0.84823904 234.72575837 -0.81623887 225.13777777 C-0.76417223 209.58280324 -0.70759416 194.02784851 -0.64819336 178.47290039 C-0.59049258 163.36060355 -0.53490757 148.24830137 -0.48217773 133.13598633 C-0.47892802 132.20483188 -0.4756783 131.27367743 -0.4723301 130.31430618 C-0.45604068 125.64308797 -0.43979297 120.97186962 -0.42356598 116.30065119 C-0.28884266 77.533743 -0.14680381 38.76686422 0 0 Z " fill="#0B0C0B" transform="translate(119,297)"/>
<path d="M0 0 C0.99 0.33 1.98 0.66 3 1 C2.1565811 6.48833461 -2.10937974 9.38933212 -6 13 C-6.53367187 13.51433594 -7.06734375 14.02867187 -7.6171875 14.55859375 C-11.14896661 17.77537634 -14.43176497 18.83554793 -19 20 C-19.33 20.66 -19.66 21.32 -20 22 C-20.66 22 -21.32 22 -22 22 C-22 22.66 -22 23.32 -22 24 C-22.66 24 -23.32 24 -24 24 C-24.2475 24.804375 -24.495 25.60875 -24.75 26.4375 C-26 29 -26 29 -28.125 29.8125 C-28.74375 29.874375 -29.3625 29.93625 -30 30 C-30 30.66 -30 31.32 -30 32 C-31.98 32.66 -33.96 33.32 -36 34 C-34.43666566 30.03153591 -31.67870722 27.58447503 -28.5625 24.8125 C-27.76440918 24.09066528 -27.76440918 24.09066528 -26.95019531 23.35424805 C-22.60722414 19.45933059 -18.09406949 15.79415121 -13.546875 12.140625 C-10.38362088 9.48193903 -7.5059603 6.61747955 -4.65625 3.62890625 C-3 2 -3 2 0 0 Z " fill="#BBA35D" transform="translate(374,327)"/>
<path d="M0 0 C0.33 0 0.66 0 1 0 C1.91252067 32.01588484 2.38229683 63.986154 1.73828125 96.01171875 C1.70223785 97.81253654 1.70223785 97.81253654 1.66546631 99.6497345 C1.54420845 105.59533661 1.41327189 111.54053004 1.26806641 117.4855957 C1.21904839 119.66747986 1.17005628 121.8493646 1.12109375 124.03125 C1.09404861 125.0222319 1.06700348 126.01321381 1.03913879 127.03422546 C0.94739355 131.29551475 0.97457147 135.34153638 1.61743164 139.56054688 C1.7436792 140.69556641 1.86992676 141.83058594 2 143 C1.01 143.99 1.01 143.99 0 145 C-1.0631969 141.81040931 -1.10890066 139.59827204 -1.08229065 136.24836731 C-1.07525116 135.04943344 -1.06821167 133.85049957 -1.06095886 132.61523438 C-1.04801285 131.29821533 -1.03506683 129.98119629 -1.02172852 128.62426758 C-1.01158533 127.22483119 -1.0018917 125.82539149 -0.99261475 124.4259491 C-0.96613771 120.62454941 -0.93335739 116.8232269 -0.89946485 113.02188706 C-0.86511791 109.05007507 -0.83654086 105.07822171 -0.80735779 101.10636902 C-0.75120815 93.5840814 -0.68985219 86.06184557 -0.62663645 78.53961438 C-0.55492392 69.97625568 -0.48899908 61.41285551 -0.42356598 52.84944689 C-0.28882789 35.23291059 -0.14680335 17.61643968 0 0 Z " fill="#040504" transform="translate(119,467)"/>
<path d="M0 0 C0.91644287 0.00523682 1.83288574 0.01047363 2.77709961 0.01586914 C3.76645508 0.0190918 4.75581055 0.02231445 5.77514648 0.02563477 C6.81606445 0.03401367 7.85698242 0.04239258 8.92944336 0.05102539 C10.49662109 0.05779297 10.49662109 0.05779297 12.09545898 0.06469727 C14.68600996 0.07652627 17.27644895 0.0930085 19.86694336 0.11352539 C20.24913103 1.76967196 20.58089438 3.43809563 20.86694336 5.11352539 C19.86694336 6.11352539 19.86694336 6.11352539 17.64208984 6.22705078 C16.68375244 6.22181396 15.72541504 6.21657715 14.73803711 6.21118164 C13.18632812 6.20634766 13.18632812 6.20634766 11.60327148 6.20141602 C10.5146582 6.19303711 9.42604492 6.1846582 8.30444336 6.17602539 C6.66572266 6.16925781 6.66572266 6.16925781 4.99389648 6.16235352 C2.28485841 6.15052366 -0.42407263 6.13404082 -3.13305664 6.11352539 C-3.17577764 4.44740634 -3.17369496 2.77969654 -3.13305664 1.11352539 C-2.13305664 0.11352539 -2.13305664 0.11352539 0 0 Z " fill="#A78A46" transform="translate(393.133056640625,365.886474609375)"/>
<path d="M0 0 C0.91644287 0.00523682 1.83288574 0.01047363 2.77709961 0.01586914 C3.76645508 0.0190918 4.75581055 0.02231445 5.77514648 0.02563477 C6.81606445 0.03401367 7.85698242 0.04239258 8.92944336 0.05102539 C10.49662109 0.05779297 10.49662109 0.05779297 12.09545898 0.06469727 C14.68600996 0.07652627 17.27644895 0.0930085 19.86694336 0.11352539 C20.24913103 1.76967196 20.58089438 3.43809563 20.86694336 5.11352539 C19.86694336 6.11352539 19.86694336 6.11352539 17.73388672 6.22705078 C16.81744385 6.22181396 15.90100098 6.21657715 14.95678711 6.21118164 C13.96743164 6.20795898 12.97807617 6.20473633 11.95874023 6.20141602 C10.91782227 6.19303711 9.8769043 6.1846582 8.80444336 6.17602539 C7.7596582 6.17151367 6.71487305 6.16700195 5.63842773 6.16235352 C3.04787676 6.15052452 0.45743777 6.13404228 -2.13305664 6.11352539 C-2.51524431 4.45737882 -2.84700766 2.78895515 -3.13305664 1.11352539 C-2.13305664 0.11352539 -2.13305664 0.11352539 0 0 Z " fill="#B8A058" transform="translate(252.133056640625,365.886474609375)"/>
<path d="M0 0 C1.98 0 3.96 0 6 0 C6 7.26 6 14.52 6 22 C2 23 2 23 0 22 C0 14.74 0 7.48 0 0 Z " fill="#BAA163" transform="translate(328,429)"/>
<path d="M0 0 C1.65 0.33 3.3 0.66 5 1 C5 7.6 5 14.2 5 21 C3.35 21.33 1.7 21.66 0 22 C-1.58937556 20.41062444 -1.12981143 18.76100154 -1.1328125 16.5625 C-1.13410156 15.66789062 -1.13539063 14.77328125 -1.13671875 13.8515625 C-1.13091797 12.44003906 -1.13091797 12.44003906 -1.125 11 C-1.12886719 10.05898438 -1.13273437 9.11796875 -1.13671875 8.1484375 C-1.13542969 7.25382812 -1.13414062 6.35921875 -1.1328125 5.4375 C-1.13112061 4.19806641 -1.13112061 4.19806641 -1.12939453 2.93359375 C-1 1 -1 1 0 0 Z " fill="#D9C17F" transform="translate(329,285)"/>
<path d="M0 0 C1.32 0.33 2.64 0.66 4 1 C4 1.99 4 2.98 4 4 C4.7115625 4.25910156 5.423125 4.51820313 6.15625 4.78515625 C9.17850734 6.07625794 11.74996289 7.64147857 14.5 9.4375 C17.22640018 11.21042596 19.8996844 12.94579836 22.76171875 14.4921875 C26.03357092 16.69626244 26.22432259 19.26264522 27 23 C24.21209221 21.68689121 21.80576905 20.22085655 19.35546875 18.35546875 C18.33936523 17.58686523 18.33936523 17.58686523 17.30273438 16.80273438 C16.25569336 16.00319336 16.25569336 16.00319336 15.1875 15.1875 C13.8065924 14.13852887 12.42508661 13.09034473 11.04296875 12.04296875 C10.37313965 11.53040527 9.70331055 11.0178418 9.01318359 10.48974609 C7.67847085 9.50206514 6.3160277 8.55073514 4.92822266 7.63916016 C2.98828125 6.36328125 2.98828125 6.36328125 0 4 C0 2.68 0 1.36 0 0 Z " fill="#9C7E39" transform="translate(296,344)"/>
<path d="M0 0 C2.92402994 1.40778961 5.66257221 2.98294138 8.40625 4.71484375 C9.23253906 5.23626953 10.05882812 5.75769531 10.91015625 6.29492188 C12.19212891 7.10799805 12.19212891 7.10799805 13.5 7.9375 C14.78197266 8.74477539 14.78197266 8.74477539 16.08984375 9.56835938 C22.64243675 13.71356446 22.64243675 13.71356446 25.04101562 15.63500977 C27.86329128 17.60152811 30.63134439 17.67609081 34 18 C33.67 18.66 33.34 19.32 33 20 C28.33912946 20.3107247 25.9521794 19.77834802 22.125 17.125 C18.70206808 14.80517062 15.27677441 12.53948955 11.73046875 10.4140625 C11.00005371 9.97304199 10.26963867 9.53202148 9.51708984 9.07763672 C8.05940932 8.19979988 6.59753057 7.32889309 5.13134766 6.46533203 C3.36931574 5.39054799 1.67680543 4.20342874 0 3 C0 2.01 0 1.02 0 0 Z " fill="#CCB774" transform="translate(300,345)"/>
<path d="M0 0 C1.65 0 3.3 0 5 0 C4.67 0.66 4.34 1.32 4 2 C3.01 2 2.02 2 1 2 C0.7525 2.61875 0.505 3.2375 0.25 3.875 C-1.23740369 6.40358627 -2.43678009 6.71839004 -5 8 C-5.2784375 8.58265625 -5.556875 9.1653125 -5.84375 9.765625 C-7.31557214 12.60982183 -9.23180716 14.49653568 -11.5 16.75 C-12.2940625 17.54921875 -13.088125 18.3484375 -13.90625 19.171875 C-16 21 -16 21 -18 21 C-17.25 16.25 -17.25 16.25 -15 14 C-14.01 14 -13.02 14 -12 14 C-12 13.34 -12 12.68 -12 12 C-11.34 12 -10.68 12 -10 12 C-9.67 11.34 -9.34 10.68 -9 10 C-8.67 9.34 -8.34 8.68 -8 8 C-7.34 8 -6.68 8 -6 8 C-6 7.34 -6 6.68 -6 6 C-5.34 6 -4.68 6 -4 6 C-4 5.34 -4 4.68 -4 4 C-3.34 4 -2.68 4 -2 4 C-1.34 2.68 -0.68 1.36 0 0 Z " fill="#997B3A" transform="translate(356,345)"/>
<path d="M0 0 C0.33 1.32 0.66 2.64 1 4 C0.030625 4.28875 -0.93875 4.5775 -1.9375 4.875 C-5.10664203 5.64214682 -5.10664203 5.64214682 -6 8 C-6.66 8 -7.32 8 -8 8 C-8 8.66 -8 9.32 -8 10 C-8.66 10 -9.32 10 -10 10 C-10.2475 10.804375 -10.495 11.60875 -10.75 12.4375 C-12 15 -12 15 -14.125 15.8125 C-14.74375 15.874375 -15.3625 15.93625 -16 16 C-16 16.66 -16 17.32 -16 18 C-17.98 18.66 -19.96 19.32 -22 20 C-20.41909341 15.90313841 -17.4566009 13.40542543 -14.25 10.5625 C-13.73695313 10.09779297 -13.22390625 9.63308594 -12.6953125 9.15429688 C-11.14216208 7.75529078 -9.57469241 6.37469285 -8 5 C-7.45279297 4.51772949 -6.90558594 4.03545898 -6.34179688 3.53857422 C-2.23859634 0 -2.23859634 0 0 0 Z " fill="#BFA55C" transform="translate(360,341)"/>
<path d="M0 0 C0.33 0 0.66 0 1 0 C0.85969417 3.66689972 0.71174579 7.33345412 0.5625 11 C0.50352539 12.54494141 0.50352539 12.54494141 0.44335938 14.12109375 C0.20814561 19.80241075 -0.19481377 25.37046268 -1 31 C-1.66 31 -2.32 31 -3 31 C-3.02912348 27.27084983 -3.04684037 23.5417291 -3.0625 19.8125 C-3.07087891 18.75740234 -3.07925781 17.70230469 -3.08789062 16.61523438 C-3.09111328 15.59365234 -3.09433594 14.57207031 -3.09765625 13.51953125 C-3.10289307 12.58214111 -3.10812988 11.64475098 -3.11352539 10.67895508 C-3.00082657 8.01950523 -2.59376649 5.59079427 -2 3 C-1.34 3 -0.68 3 0 3 C0 2.01 0 1.02 0 0 Z " fill="#323231" transform="translate(243,346)"/>
<path d="M0 0 C19.8 0 39.6 0 60 0 C60 0.33 60 0.66 60 1 C59.11646851 1.03758423 59.11646851 1.03758423 58.21508789 1.07592773 C55.49741329 1.19332361 52.77996658 1.31538715 50.0625 1.4375 C49.13630859 1.47681641 48.21011719 1.51613281 47.25585938 1.55664062 C41.46486581 1.82079121 35.75460497 2.29764309 30 3 C30 2.34 30 1.68 30 1 C20.1 1 10.2 1 0 1 C0 0.67 0 0.34 0 0 Z " fill="#504E50" transform="translate(450,122)"/>
<path d="M0 0 C5.072007 -0.04942365 10.14387394 -0.08573068 15.21606445 -0.10986328 C16.94167523 -0.11992326 18.66726895 -0.13357276 20.39282227 -0.15087891 C22.8726014 -0.17512754 25.35215523 -0.18648301 27.83203125 -0.1953125 C28.60400345 -0.20563507 29.37597565 -0.21595764 30.17134094 -0.22659302 C33.99281476 -0.22739422 35.74136107 -0.17242595 39 2 C35.25297715 3.03366148 32.77200794 3.25733598 29 2 C26.9490346 1.96920513 26.9490346 1.96920513 24.7265625 2.15625 C23.9015625 2.20910156 23.0765625 2.26195313 22.2265625 2.31640625 C20.4999612 2.43825349 18.77339817 2.56064437 17.046875 2.68359375 C12.83104162 2.95282922 9.12215659 3.12563598 5 2 C3.6078125 1.7215625 3.6078125 1.7215625 2.1875 1.4375 C1.465625 1.293125 0.74375 1.14875 0 1 C0 0.67 0 0.34 0 0 Z " fill="#414041" transform="translate(240,122)"/>
<path d="M0 0 C1.32 0 2.64 0 4 0 C2.6077541 4.62675657 0.70479016 8.64686231 -1.625 12.875 C-2.25664062 14.02742187 -2.88828125 15.17984375 -3.5390625 16.3671875 C-4.02117187 17.23601562 -4.50328125 18.10484375 -5 19 C-6.1171875 17.296875 -6.1171875 17.296875 -7 15 C-6.3203125 12.640625 -6.3203125 12.640625 -5.125 10.25 C-4.73570312 9.45078125 -4.34640625 8.6515625 -3.9453125 7.828125 C-3.63335937 7.22484375 -3.32140625 6.6215625 -3 6 C-2.01 6.33 -1.02 6.66 0 7 C-0.2784375 5.824375 -0.2784375 5.824375 -0.5625 4.625 C-1 2 -1 2 0 0 Z " fill="#2E2D2E" transform="translate(505,123)"/>
<path d="M0 0 C6.93 0 13.86 0 21 0 C21 0.99 21 1.98 21 3 C14.07 2.67 7.14 2.34 0 2 C0 1.34 0 0.68 0 0 Z " fill="#CFBA77" transform="translate(392,366)"/>
<path d="M0 0 C0.66 0.99 1.32 1.98 2 3 C1.125 6.1875 1.125 6.1875 0 9 C-0.66 9 -1.32 9 -2 9 C-2.33 9.33 -2.66 9.66 -3 10 C-3.99 9.67 -4.98 9.34 -6 9 C-5.34 7.68 -4.68 6.36 -4 5 C-6.97 4.505 -6.97 4.505 -10 4 C-10 3.67 -10 3.34 -10 3 C-8.72125 2.87625 -7.4425 2.7525 -6.125 2.625 C-2.65209064 2.30957601 -2.65209064 2.30957601 0 0 Z " fill="#AD914A" transform="translate(337,359)"/>
<path d="M0 0 C0.66 1.32 1.32 2.64 2 4 C7.61 4.33 13.22 4.66 19 5 C19 4.34 19 3.68 19 3 C19.99 3 20.98 3 22 3 C22.33 2.34 22.66 1.68 23 1 C22.67 2.65 22.34 4.3 22 6 C14.74 6 7.48 6 0 6 C-0.33 4.35 -0.66 2.7 -1 1 C-0.67 0.67 -0.34 0.34 0 0 Z " fill="#896F31" transform="translate(250,366)"/>
<path d="M0 0 C1.65 0 3.3 0 5 0 C4.67 0.66 4.34 1.32 4 2 C3.01 2 2.02 2 1 2 C0.7525 2.61875 0.505 3.2375 0.25 3.875 C-1.20628639 6.35068687 -2.37812506 6.95125002 -5 8 C-5 8.66 -5 9.32 -5 10 C-5.99 9.67 -6.98 9.34 -8 9 C-7.34 8.67 -6.68 8.34 -6 8 C-6 7.34 -6 6.68 -6 6 C-5.34 6 -4.68 6 -4 6 C-4 5.34 -4 4.68 -4 4 C-3.34 4 -2.68 4 -2 4 C-1.34 2.68 -0.68 1.36 0 0 Z " fill="#AC8C44" transform="translate(356,345)"/>
<path d="M0 0 C0.99 0.66 1.98 1.32 3 2 C0.03 4.64 -2.94 7.28 -6 10 C-7 7 -7 7 -6.375 5 C-4.63619914 2.47083511 -2.68936682 1.41545622 0 0 Z " fill="#282620" transform="translate(364,332)"/>
<path d="M0 0 C1.98 0.99 1.98 0.99 4 2 C4 2.66 4 3.32 4 4 C10.27 4 16.54 4 23 4 C23 4.33 23 4.66 23 5 C15.41 5 7.82 5 0 5 C0 3.35 0 1.7 0 0 Z " fill="#7B622A" transform="translate(390,367)"/>
<path d="M0 0 C5 2 5 2 10 4 C6.77626323 6.14915785 5.73296326 6.38286803 2 6 C1.34 5.34 0.68 4.68 0 4 C0 2.68 0 1.36 0 0 Z " fill="#BA9849" transform="translate(321,361)"/>
<path d="M0 0 C0.33 0 0.66 0 1 0 C1.38846807 2.62365356 1.76124888 5.24790856 2.125 7.875 C2.23714844 8.62136719 2.34929687 9.36773438 2.46484375 10.13671875 C2.72766446 12.08159197 2.8716515 14.04165038 3 16 C2.34 16.66 1.68 17.32 1 18 C-0.2062252 14.38132441 -0.10816918 11.07493749 -0.0625 7.3125 C-0.05798828 6.61060547 -0.05347656 5.90871094 -0.04882812 5.18554688 C-0.03706927 3.45699462 -0.01913454 1.72848635 0 0 Z " fill="#0C0C0D" transform="translate(118,594)"/>
<path d="M0 0 C0.33 0.66 0.66 1.32 1 2 C3.97 2 6.94 2 10 2 C9.67 2.99 9.34 3.98 9 5 C7.02 5 5.04 5 3 5 C3 4.34 3 3.68 3 3 C2.01 3.33 1.02 3.66 0 4 C0 2.68 0 1.36 0 0 Z " fill="#B99B4E" transform="translate(391,366)"/>
<path d="M0 0 C1.32 0.33 2.64 0.66 4 1 C1.36 2.98 -1.28 4.96 -4 7 C-4.66 5.35 -5.32 3.7 -6 2 C-5.34 1.67 -4.68 1.34 -4 1 C-4 1.66 -4 2.32 -4 3 C-3.01 3 -2.02 3 -1 3 C-0.67 2.01 -0.34 1.02 0 0 Z " fill="#9C8143" transform="translate(365,338)"/>
<path d="M0 0 C0.66 0 1.32 0 2 0 C1.42655063 2.86724686 1.1385485 3.8614515 -1 6 C-3.68839385 6.26991906 -6.29141936 6.08737357 -9 6 C-9.33 5.34 -9.66 4.68 -10 4 C-7.36 4 -4.72 4 -2 4 C-1.34 2.68 -0.68 1.36 0 0 Z " fill="#94742B" transform="translate(335,369)"/>
<path d="M0 0 C0.66 0 1.32 0 2 0 C1.125 6.75 1.125 6.75 0 9 C-0.99 9 -1.98 9 -3 9 C-2.01 6.03 -1.02 3.06 0 0 Z " fill="#141416" transform="translate(415,400)"/>
<path d="M0 0 C0.66 0 1.32 0 2 0 C0.14285714 7.57142857 0.14285714 7.57142857 -3 10 C-4 7 -4 7 -3.22265625 5.17578125 C-2.1484375 3.45052083 -1.07421875 1.72526042 0 0 Z " fill="#3A3939" transform="translate(235,311)"/>
<path d="M0 0 C0.66 0 1.32 0 2 0 C0.84414715 3.91211733 -0.35534962 6.8745041 -3 10 C-3.75 8.375 -3.75 8.375 -4 6 C-2.1875 2.75 -2.1875 2.75 0 0 Z " fill="#2C2B2C" transform="translate(468,197)"/>
<path d="M0 0 C0.66 0.66 1.32 1.32 2 2 C1.8125 4.5 1.8125 4.5 1 7 C0.01 7.66 -0.98 8.32 -2 9 C-1.67 7.35 -1.34 5.7 -1 4 C-1.66 3.67 -2.32 3.34 -3 3 C-2.01 2.01 -1.02 1.02 0 0 Z " fill="#998146" transform="translate(371,329)"/>
<path d="M0 0 C0.66 0 1.32 0 2 0 C0.84414715 3.91211733 -0.35534962 6.8745041 -3 10 C-4 7 -4 7 -3.22265625 5.17578125 C-2.1484375 3.45052083 -1.07421875 1.72526042 0 0 Z " fill="#292A2B" transform="translate(460,213)"/>
<path d="M0 0 C2.64465038 3.1254959 3.84414715 6.08788267 5 10 C3.0625 9.5 3.0625 9.5 1 8 C0.31209578 5.30341548 0.18053536 2.7982981 0 0 Z " fill="#4D4C4D" transform="translate(478,553)"/>
<path d="M0 0 C2.79908133 2.79908133 2.72362983 5.13081763 3 9 C2.34 9.66 1.68 10.32 1 11 C-0.20272819 8.59454362 -0.10071472 7.05003047 -0.0625 4.375 C-0.05347656 3.55773437 -0.04445312 2.74046875 -0.03515625 1.8984375 C-0.02355469 1.27195312 -0.01195312 0.64546875 0 0 Z " fill="#101110" transform="translate(242,379)"/>
<path d="M0 0 C0.99 0 1.98 0 3 0 C1.87548273 2.9719385 0.77706209 5.33440687 -1 8 C-1.66 7.67 -2.32 7.34 -3 7 C-1.125 2.25 -1.125 2.25 0 0 Z " fill="#2D2C2C" transform="translate(496,142)"/>
<path d="M0 0 C1.32 0.33 2.64 0.66 4 1 C4 1.99 4 2.98 4 4 C4.66 4 5.32 4 6 4 C5.67 4.66 5.34 5.32 5 6 C2.525 5.01 2.525 5.01 0 4 C0 2.68 0 1.36 0 0 Z " fill="#AC964F" transform="translate(296,344)"/>
<path d="M0 0 C0.33 0.99 0.66 1.98 1 3 C-0.9375 6.1875 -0.9375 6.1875 -3 9 C-3.66 8.01 -4.32 7.02 -5 6 C-3.35 4.02 -1.7 2.04 0 0 Z " fill="#232323" transform="translate(245,296)"/>
<path d="M0 0 C0.66 1.32 1.32 2.64 2 4 C0.71937515 5.7074998 -0.61767557 7.37373596 -2 9 C-2.66 9 -3.32 9 -4 9 C-2.80100302 5.9168649 -1.52299523 2.93720508 0 0 Z " fill="#D1D3D3" transform="translate(474,190)"/>
<path d="M0 0 C0 2.31 0 4.62 0 7 C-0.99 7 -1.98 7 -3 7 C-3 5.02 -3 3.04 -3 1 C-1 0 -1 0 0 0 Z " fill="#A7873E" transform="translate(333,436)"/>
<path d="M0 0 C1.32 0.33 2.64 0.66 4 1 C4 2.32 4 3.64 4 5 C3.01 5 2.02 5 1 5 C0.67 5.66 0.34 6.32 0 7 C0 4.69 0 2.38 0 0 Z " fill="#D2B466" transform="translate(329,286)"/>
<path d="M0 0 C0.66 0 1.32 0 2 0 C2.66 2.31 3.32 4.62 4 7 C3.01 7.495 3.01 7.495 2 8 C0.23537317 4.91190305 0 3.76687864 0 0 Z " fill="#171616" transform="translate(248,403)"/>
<path d="M0 0 C1.65 0 3.3 0 5 0 C5.33 1.32 5.66 2.64 6 4 C4.35 4.33 2.7 4.66 1 5 C0.67 3.35 0.34 1.7 0 0 Z " fill="#AA8537" transform="translate(323,367)"/>
<path d="M0 0 C0.33 0.66 0.66 1.32 1 2 C1.99 2.33 2.98 2.66 4 3 C4 3.99 4 4.98 4 6 C2.68 6 1.36 6 0 6 C0 4.02 0 2.04 0 0 Z " fill="#D1BB7B" transform="translate(329,301)"/>
</svg>
